<svg width="238" height="208" xmlns="http://www.w3.org/2000/svg" xmlns:xlink="http://www.w3.org/1999/xlink" xml:space="preserve" overflow="hidden"><g transform="translate(-1722 -859)"><path d="M1725.5 885.5C1725.5 872.797 1737.36 862.5 1752 862.5 1766.64 862.5 1778.5 872.797 1778.5 885.5 1778.5 898.203 1766.64 908.5 1752 908.5 1737.36 908.5 1725.5 898.203 1725.5 885.5Z" stroke="#000000" stroke-width="6.875" stroke-miterlimit="8" fill-rule="evenodd"/><path d="M1725.5 963C1725.5 950.574 1737.36 940.5 1752 940.5 1766.64 940.5 1778.5 950.574 1778.5 963 1778.5 975.426 1766.64 985.5 1752 985.5 1737.36 985.5 1725.5 975.426 1725.5 963Z" stroke="#000000" stroke-width="6.875" stroke-miterlimit="8" fill-rule="evenodd"/><path d="M1725.5 1040.5C1725.5 1027.8 1737.36 1017.5 1752 1017.5 1766.64 1017.5 1778.5 1027.8 1778.5 1040.5 1778.5 1053.2 1766.64 1063.5 1752 1063.5 1737.36 1063.5 1725.5 1053.2 1725.5 1040.5Z" stroke="#000000" stroke-width="6.875" stroke-miterlimit="8" fill-rule="evenodd"/><path d="M1814.5 888C1814.5 875.574 1826.36 865.5 1841 865.5 1855.64 865.5 1867.5 875.574 1867.5 888 1867.5 900.427 1855.64 910.5 1841 910.5 1826.36 910.5 1814.5 900.427 1814.5 888Z" stroke="#000000" stroke-width="6.875" stroke-miterlimit="8" fill-rule="evenodd"/><path d="M1814.5 963C1814.5 950.574 1826.36 940.5 1841 940.5 1855.64 940.5 1867.5 950.574 1867.5 963 1867.5 975.426 1855.64 985.5 1841 985.5 1826.36 985.5 1814.5 975.426 1814.5 963Z" stroke="#000000" stroke-width="6.875" stroke-miterlimit="8" fill-rule="evenodd"/><path d="M1814.5 1040.5C1814.5 1027.8 1826.36 1017.5 1841 1017.5 1855.64 1017.5 1867.5 1027.8 1867.5 1040.5 1867.5 1053.2 1855.64 1063.5 1841 1063.5 1826.36 1063.5 1814.5 1053.2 1814.5 1040.5Z" stroke="#000000" stroke-width="6.875" stroke-miterlimit="8" fill-rule="evenodd"/><path d="M1903.5 885C1903.5 872.574 1915.36 862.5 1930 862.5 1944.64 862.5 1956.5 872.574 1956.5 885 1956.5 897.426 1944.64 907.5 1930 907.5 1915.36 907.5 1903.5 897.426 1903.5 885Z" stroke="#000000" stroke-width="6.875" stroke-miterlimit="8" fill-rule="evenodd"/><path d="M1903.5 965C1903.5 952.574 1915.36 942.5 1930 942.5 1944.64 942.5 1956.5 952.574 1956.5 965 1956.5 977.427 1944.64 987.5 1930 987.5 1915.36 987.5 1903.5 977.427 1903.5 965Z" stroke="#000000" stroke-width="6.875" stroke-miterlimit="8" fill-rule="evenodd"/><path d="M1903.5 1040.5C1903.5 1027.8 1915.36 1017.5 1930 1017.5 1944.64 1017.5 1956.5 1027.8 1956.5 1040.5 1956.5 1053.2 1944.64 1063.5 1930 1063.5 1915.36 1063.5 1903.5 1053.2 1903.5 1040.5Z" stroke="#000000" stroke-width="6.875" stroke-miterlimit="8" fill-rule="evenodd"/></g></svg>